<svg width="32" height="32" viewBox="0 0 32 32" fill="none" xmlns="http://www.w3.org/2000/svg">
<path d="M10.4907 25.5195C12.8012 26.8568 15.5192 27.3081 18.1378 26.7894C20.7565 26.2706 23.0972 24.8172 24.7234 22.7002C26.3497 20.5831 27.1505 17.9469 26.9766 15.283C26.8027 12.6191 25.666 10.1094 23.7783 8.22169C21.8906 6.33402 19.3809 5.19727 16.717 5.02337C14.0531 4.84948 11.4169 5.65031 9.29981 7.27656C7.18276 8.90281 5.72938 11.2435 5.21064 13.8622C4.69191 16.4808 5.14323 19.1988 6.48045 21.5093L5.04708 25.7888C4.99322 25.9503 4.9854 26.1236 5.02451 26.2893C5.06361 26.455 5.14809 26.6066 5.26847 26.7269C5.38886 26.8473 5.54039 26.9318 5.70609 26.9709C5.87179 27.01 6.0451 27.0022 6.20661 26.9483L10.4907 25.5195Z" stroke="black" stroke-width="1.99991" stroke-linecap="round" stroke-linejoin="round"/>
</svg>
